PathFileType	4	(X/Y/Z)	 0.11m3min.trc
DataRate	CameraRate	NumFrames	NumMarkers	Units	OrigDataRate	OrigDataStartFrame	OrigNumFrames
200	200	8	34	m	200	376	1000
Frame#	Time	LSH			RSH			MAN			RASI			LASI			HIPR			HIPL			RPSI			LPSI			COX			RTHI1			RTHI2			RTHI3			RTHI4			RSHA1			RSHA2			RSHA3			RSHA4			RHEEL			RMET5			RMET1			RTOE			LTHI1			LTHI2			LTHI3			LTHI4			LSHA1			LSHA2			LSHA3			LSHA4			LHEEL			LMET5			LMET1			LTOE			
		X1	Y1	Z1	X2	Y2	Z2	X3	Y3	Z3	X4	Y4	Z4	X5	Y5	Z5	X6	Y6	Z6	X7	Y7	Z7	X8	Y8	Z8	X9	Y9	Z9	X10	Y10	Z10	X11	Y11	Z11	X12	Y12	Z12	X13	Y13	Z13	X14	Y14	Z14	X15	Y15	Z15	X16	Y16	Z16	X17	Y17	Z17	X18	Y18	Z18	X19	Y19	Z19	X20	Y20	Z20	X21	Y21	Z21	X22	Y22	Z22	X23	Y23	Z23	X24	Y24	Z24	X25	Y25	Z25	X26	Y26	Z26	X27	Y27	Z27	X28	Y28	Z28	X29	Y29	Z29	X30	Y30	Z30	X31	Y31	Z31	X32	Y32	Z32	X33	Y33	Z33	X34	Y34	Z34	
376	1.8800	-0.185520	1.501045	-0.701973	-0.200961	1.491174	-0.363341	-0.131201	1.462512	-0.530102	-0.111493	1.057571	-0.414765	-0.109044	1.056656	-0.642365	-0.163365	1.108584	-0.390761	-0.162677	1.103425	-0.667855	-0.267437	1.089983	-0.471674	-0.267288	1.090446	-0.583961	-0.272670	1.092632	-0.527948	-0.201423	0.845273	-0.362540	-0.177166	0.790657	-0.360478	-0.116959	0.812977	-0.353698	-0.133346	0.872236	-0.354132	-0.209971	0.422061	-0.373346	-0.219100	0.380801	-0.383123	-0.158561	0.374457	-0.380969	-0.153297	0.414093	-0.375956	-0.270022	0.193571	-0.436000	-0.150176	0.080242	-0.392453	-0.130563	0.079786	-0.454739	-0.110554	0.063153	-0.447873	-0.184344	0.864128	-0.703843	-0.163379	0.806178	-0.701853	-0.100804	0.823243	-0.694483	-0.114259	0.881302	-0.696665	-0.219150	0.431476	-0.687461	-0.231747	0.393197	-0.683808	-0.170176	0.379842	-0.684836	-0.165614	0.423605	-0.688737	-0.293840	0.184012	-0.633444	-0.174597	0.090664	-0.693182	-0.140528	0.079928	-0.632293	-0.122446	0.064570	-0.640327	
377	1.8850	-0.184898	1.497883	-0.701831	-0.200541	1.488058	-0.363023	-0.130704	1.459399	-0.529836	-0.111917	1.054737	-0.414477	-0.109460	1.054004	-0.642060	-0.163827	1.105691	-0.390506	-0.163082	1.100709	-0.667593	-0.267949	1.086911	-0.471380	-0.267691	1.087447	-0.583756	-0.273249	1.089612	-0.527691	-0.200932	0.842211	-0.362288	-0.176503	0.787651	-0.360424	-0.116340	0.810161	-0.353763	-0.132923	0.869357	-0.354046	-0.208845	0.419522	-0.373387	-0.218112	0.378366	-0.383216	-0.157600	0.371822	-0.381214	-0.152197	0.411480	-0.376210	-0.269995	0.191512	-0.436441	-0.150707	0.077897	-0.392539	-0.130971	0.077091	-0.454723	-0.111068	0.060388	-0.447723	-0.183597	0.861445	-0.703637	-0.162503	0.803568	-0.701455	-0.100030	0.820790	-0.693635	-0.113608	0.878808	-0.695993	-0.217922	0.428904	-0.687455	-0.230732	0.390694	-0.683874	-0.169204	0.377119	-0.684002	-0.164424	0.420839	-0.687973	-0.294393	0.181650	-0.633390	-0.174405	0.088450	-0.691907	-0.140890	0.077895	-0.630684	-0.122698	0.062621	-0.638524	
378	1.8900	-0.184287	1.494479	-0.701670	-0.200159	1.484704	-0.362715	-0.130219	1.456035	-0.529568	-0.112355	1.051663	-0.414188	-0.109880	1.051111	-0.641744	-0.164303	1.102541	-0.390253	-0.163474	1.097758	-0.667326	-0.268445	1.083605	-0.471095	-0.268034	1.084215	-0.583589	-0.273823	1.086365	-0.527448	-0.200493	0.838882	-0.362109	-0.175885	0.784396	-0.360375	-0.115782	0.807094	-0.353840	-0.132562	0.866227	-0.353976	-0.207711	0.416782	-0.373385	-0.217163	0.375745	-0.383265	-0.156680	0.368973	-0.381459	-0.151106	0.408631	-0.376456	-0.270144	0.189267	-0.436921	-0.151362	0.075440	-0.392537	-0.131479	0.074251	-0.454614	-0.111677	0.057458	-0.447469	-0.182897	0.858489	-0.703403	-0.161669	0.800675	-0.701030	-0.099295	0.818056	-0.692827	-0.113000	0.876045	-0.695346	-0.216627	0.426113	-0.687486	-0.229683	0.387987	-0.683987	-0.168220	0.374155	-0.683159	-0.163187	0.417828	-0.687203	-0.295016	0.179111	-0.633342	-0.174327	0.086051	-0.690693	-0.141339	0.075644	-0.629173	-0.123053	0.060427	-0.636844	
379	1.8950	-0.183723	1.490834	-0.701487	-0.199862	1.481126	-0.362457	-0.129752	1.452415	-0.529297	-0.112803	1.048343	-0.413899	-0.110302	1.047976	-0.641423	-0.164780	1.099148	-0.390011	-0.163853	1.094578	-0.667057	-0.268936	1.080062	-0.470806	-0.268323	1.080746	-0.583458	-0.274372	1.082896	-0.527187	-0.200112	0.835285	-0.362009	-0.175313	0.780875	-0.360391	-0.115286	0.803776	-0.353926	-0.132286	0.862854	-0.353902	-0.206588	0.413868	-0.373377	-0.216259	0.372937	-0.383245	-0.155809	0.365903	-0.381700	-0.150037	0.405555	-0.376703	-0.270468	0.186832	-0.437411	-0.152128	0.072873	-0.392445	-0.132091	0.071264	-0.454416	-0.112385	0.054361	-0.447119	-0.182248	0.855253	-0.703138	-0.160883	0.797500	-0.700588	-0.098603	0.815046	-0.692058	-0.112441	0.873007	-0.694720	-0.215279	0.423110	-0.687528	-0.228610	0.385088	-0.684131	-0.167239	0.370972	-0.682321	-0.161914	0.414586	-0.686431	-0.295703	0.176410	-0.633298	-0.174378	0.083462	-0.689542	-0.141895	0.073153	-0.627759	-0.123531	0.057962	-0.635287	
380	1.9000	-0.183231	1.486949	-0.701277	-0.199659	1.477327	-0.362252	-0.129306	1.448541	-0.529024	-0.113259	1.044782	-0.413607	-0.110729	1.044597	-0.641096	-0.165290	1.095504	-0.389763	-0.164219	1.091160	-0.666784	-0.269426	1.076294	-0.470507	-0.268565	1.077036	-0.583355	-0.274903	1.079207	-0.526908	-0.199793	0.831426	-0.361993	-0.174785	0.777105	-0.360422	-0.114850	0.800215	-0.354022	-0.132085	0.859231	-0.353851	-0.205490	0.410817	-0.373329	-0.215415	0.370000	-0.383175	-0.155002	0.362624	-0.381934	-0.148995	0.402253	-0.376949	-0.270972	0.184236	-0.437900	-0.153009	0.070179	-0.392262	-0.132819	0.068123	-0.454126	-0.113206	0.051086	-0.446678	-0.181662	0.851727	-0.702842	-0.160148	0.794038	-0.700129	-0.097957	0.811755	-0.691332	-0.111941	0.869687	-0.694118	-0.213893	0.419914	-0.687569	-0.227520	0.382008	-0.684272	-0.166271	0.367565	-0.681493	-0.160624	0.411117	-0.685663	-0.296446	0.173562	-0.633270	-0.174569	0.080673	-0.688467	-0.142582	0.070397	-0.626445	-0.124166	0.055207	-0.633857	
381	1.9050	-0.182833	1.482832	-0.701035	-0.199539	1.473294	-0.362081	-0.128885	1.444416	-0.528744	-0.113722	1.040977	-0.413311	-0.111158	1.040981	-0.640761	-0.165818	1.091613	-0.389512	-0.164582	1.087508	-0.666515	-0.269900	1.072289	-0.470213	-0.268861	1.073126	-0.583186	-0.275404	1.075296	-0.526619	-0.199534	0.827297	-0.362060	-0.174303	0.773078	-0.360507	-0.114474	0.796425	-0.354122	-0.131959	0.855362	-0.353826	-0.204420	0.407634	-0.373230	-0.214629	0.366901	-0.383066	-0.154272	0.359115	-0.382172	-0.147998	0.398709	-0.377159	-0.271626	0.181492	-0.438371	-0.154034	0.067317	-0.391988	-0.133685	0.064805	-0.453751	-0.114174	0.047604	-0.446138	-0.181138	0.847906	-0.702515	-0.159462	0.790282	-0.699653	-0.097354	0.808190	-0.690647	-0.111509	0.866086	-0.693545	-0.212482	0.416533	-0.687584	-0.226423	0.378746	-0.684392	-0.165316	0.363943	-0.680679	-0.159328	0.407434	-0.684908	-0.297242	0.170600	-0.633272	-0.174919	0.077678	-0.687474	-0.143425	0.067363	-0.625242	-0.124978	0.052157	-0.632549	
382	1.9100	-0.182530	1.478487	-0.700763	-0.199488	1.469022	-0.361925	-0.128491	1.440039	-0.528459	-0.114187	1.036929	-0.413008	-0.111589	1.037130	-0.640428	-0.166362	1.087464	-0.389254	-0.164978	1.083619	-0.666242	-0.270362	1.068054	-0.469923	-0.269212	1.069013	-0.582958	-0.275876	1.071157	-0.526322	-0.199335	0.822897	-0.362208	-0.173861	0.768805	-0.360635	-0.114157	0.792401	-0.354220	-0.131903	0.851263	-0.353843	-0.203385	0.404278	-0.373129	-0.213907	0.363622	-0.382948	-0.153607	0.355392	-0.382396	-0.147055	0.394933	-0.377349	-0.272428	0.178569	-0.438776	-0.155237	0.064258	-0.391621	-0.134716	0.061302	-0.453301	-0.115328	0.044012	-0.445557	-0.180680	0.843786	-0.702152	-0.158817	0.786230	-0.699152	-0.096795	0.804355	-0.690001	-0.111143	0.862212	-0.693003	-0.211060	0.412973	-0.687563	-0.225321	0.375303	-0.684470	-0.164376	0.360120	-0.679891	-0.158031	0.403555	-0.684168	-0.298090	0.167526	-0.633311	-0.175442	0.074468	-0.686570	-0.144449	0.064050	-0.624145	-0.125994	0.048815	-0.631364	
383	1.9150	-0.182264	1.473908	-0.700470	-0.199519	1.464510	-0.361789	-0.128130	1.435406	-0.528168	-0.114649	1.032632	-0.412698	-0.112019	1.033044	-0.640098	-0.166918	1.083069	-0.388992	-0.165407	1.079487	-0.665972	-0.270819	1.063592	-0.469624	-0.269613	1.064688	-0.582712	-0.276323	1.066795	-0.526010	-0.199191	0.818235	-0.362432	-0.173456	0.764283	-0.360836	-0.113887	0.788150	-0.354322	-0.131913	0.846925	-0.353903	-0.202405	0.400727	-0.373044	-0.213243	0.360161	-0.382821	-0.153007	0.351446	-0.382591	-0.146161	0.390940	-0.377524	-0.273363	0.175476	-0.439105	-0.156650	0.060967	-0.391161	-0.135945	0.057664	-0.452852	-0.116671	0.040456	-0.445009	-0.180286	0.839364	-0.701750	-0.158213	0.781887	-0.698626	-0.096277	0.800255	-0.689389	-0.110840	0.858060	-0.692486	-0.209636	0.409230	-0.687487	-0.224221	0.371680	-0.684499	-0.163448	0.356098	-0.679132	-0.156743	0.399481	-0.683446	-0.298995	0.164340	-0.633377	-0.176142	0.071051	-0.685762	-0.145670	0.060475	-0.623141	-0.127218	0.045273	-0.630262	
